<svg xmlns="http://www.w3.org/2000/svg" width="320.06" height="339.729" viewBox="-105.809 -149.754 320.06 339.729"><title>Neo4j Graph Visualization</title><desc>Created using Neo4j (http://www.neo4j.com/)</desc><g class="layer relationships"><g class="relationship"><path fill="#A5ABB6" stroke="none" d="M 25 0.5 L 45.86500098580619 0.5 L 45.86500098580619 -0.5 L 25 -0.5 Z M 94.08765723580619 0.5 L 114.95265822161238 0.5 L 114.95265822161238 3.5 L 121.95265822161238 0 L 114.95265822161238 -3.5 L 114.95265822161238 -0.5 L 94.08765723580619 -0.5 Z" class="b-outline" transform="translate(64.37326808037952 160.9745045766605) rotate(325.342180479503)"/><text x="69.976" y="3" fill="#fff" font-family="Helvetica Neue, Helvetica, Arial, sans-serif" font-size="8" pointer-events="none" text-anchor="middle" transform="translate(64.37326808037952 160.9745045766605) rotate(325.342180479503)">MENTIONS</text></g><g class="relationship"><path fill="#A5ABB6" stroke="none" d="M 25 0.5 L 48.45342195548257 0.5 L 48.45342195548257 -0.5 L 25 -0.5 Z M 96.67607820548257 0.5 L 120.12950016096514 0.5 L 120.12950016096514 3.5 L 127.12950016096514 0 L 120.12950016096514 -3.5 L 120.12950016096514 -0.5 L 96.67607820548257 -0.5 Z" class="b-outline" transform="translate(64.37326808037952 160.9745045766605) rotate(268.0194761774372)"/><text x="72.565" y="3" fill="#fff" font-family="Helvetica Neue, Helvetica, Arial, sans-serif" font-size="8" pointer-events="none" text-anchor="middle" transform="translate(64.37326808037952 160.9745045766605) rotate(268.0194761774372) rotate(180 72.56475008048257 0)">MENTIONS</text></g><g class="relationship"><path fill="#A5ABB6" stroke="none" d="M 25 0.5 L 43.0453604327618 0.5 L 43.0453604327618 -0.5 L 25 -0.5 Z M 91.2680166827618 0.5 L 109.3133771155236 0.5 L 109.3133771155236 3.5 L 116.3133771155236 0 L 109.3133771155236 -3.5 L 109.3133771155236 -0.5 L 91.2680166827618 -0.5 Z" class="b-outline" transform="translate(64.37326808037952 160.9745045766605) rotate(214.36893208966427)"/><text x="67.157" y="3" fill="#fff" font-family="Helvetica Neue, Helvetica, Arial, sans-serif" font-size="8" pointer-events="none" text-anchor="middle" transform="translate(64.37326808037952 160.9745045766605) rotate(214.36893208966427) rotate(180 67.1566885577618 0)">MENTIONS</text></g><g class="relationship"><path fill="#A5ABB6" stroke="none" d="M 25 0.5 L 39.4813012088875 0.5 L 39.4813012088875 -0.5 L 25 -0.5 Z M 97.0398949588875 0.5 L 111.521196167775 0.5 L 111.521196167775 3.5 L 118.521196167775 0 L 111.521196167775 -3.5 L 111.521196167775 -0.5 L 97.0398949588875 -0.5 Z" class="b-outline" transform="translate(59.11570627539377 8.935881644552067) rotate(388.4945734254285)"/><text x="68.261" y="3" fill="#fff" font-family="Helvetica Neue, Helvetica, Arial, sans-serif" font-size="8" pointer-events="none" text-anchor="middle" transform="translate(59.11570627539377 8.935881644552067) rotate(388.4945734254285)">WORKS_FOR</text></g><g class="relationship"><path fill="#A5ABB6" stroke="none" d="M 25 0.5 L 31.21884260824949 0.5 L 31.21884260824949 -0.5 L 25 -0.5 Z M 94.55478010824949 0.5 L 100.77362271649898 0.5 L 100.77362271649898 3.5 L 107.77362271649898 0 L 100.77362271649898 -3.5 L 100.77362271649898 -0.5 L 94.55478010824949 -0.5 Z" class="b-outline" transform="translate(59.11570627539377 8.935881644552067) rotate(507.02532906724895)"/><text x="62.887" y="3" fill="#fff" font-family="Helvetica Neue, Helvetica, Arial, sans-serif" font-size="8" pointer-events="none" text-anchor="middle" transform="translate(59.11570627539377 8.935881644552067) rotate(507.02532906724895) rotate(180 62.88681135824949 0)">WORKED_FOR</text></g><g class="relationship"><path fill="#A5ABB6" stroke="none" d="M 25 0.5 L 26.434656330468542 0.5 L 26.434656330468542 -0.5 L 25 -0.5 Z M 96.44246883046854 0.5 L 97.87712516093708 0.5 L 97.87712516093708 3.5 L 104.87712516093708 0 L 97.87712516093708 -3.5 L 97.87712516093708 -0.5 L 96.44246883046854 -0.5 Z" class="b-outline" transform="translate(59.11570627539377 8.935881644552067) rotate(266.9235303682344)"/><text x="61.439" y="3" fill="#fff" font-family="Helvetica Neue, Helvetica, Arial, sans-serif" font-size="8" pointer-events="none" text-anchor="middle" transform="translate(59.11570627539377 8.935881644552067) rotate(266.9235303682344) rotate(180 61.43856258046854 0)">HOLDS_OFFIC…</text></g><g class="relationship"><path fill="#A5ABB6" stroke="none" d="M 25 0.5 L 50.08589014533345 0.5 L 50.08589014533345 -0.5 L 25 -0.5 Z M 98.30854639533345 0.5 L 123.3944365406669 0.5 L 123.3944365406669 3.5 L 130.3944365406669 0 L 123.3944365406669 -3.5 L 123.3944365406669 -0.5 L 98.30854639533345 -0.5 Z" class="b-outline" transform="translate(-76.8088607917906 -66.37642130383644) rotate(388.9897079993928)"/><text x="74.197" y="3" fill="#fff" font-family="Helvetica Neue, Helvetica, Arial, sans-serif" font-size="8" pointer-events="none" text-anchor="middle" transform="translate(-76.8088607917906 -66.37642130383644) rotate(388.9897079993928)">MENTIONS</text></g><g class="relationship"><path fill="#A5ABB6" stroke="none" d="M 25 0.5 L 42.363883039766904 0.5 L 42.363883039766904 -0.5 L 25 -0.5 Z M 90.5865392897669 0.5 L 107.95042232953381 0.5 L 107.95042232953381 3.5 L 114.95042232953381 0 L 107.95042232953381 -3.5 L 107.95042232953381 -0.5 L 90.5865392897669 -0.5 Z" class="b-outline" transform="translate(-76.8088607917906 -66.37642130383644) rotate(337.13573550965714)"/><text x="66.475" y="3" fill="#fff" font-family="Helvetica Neue, Helvetica, Arial, sans-serif" font-size="8" pointer-events="none" text-anchor="middle" transform="translate(-76.8088607917906 -66.37642130383644) rotate(337.13573550965714)">MENTIONS</text></g></g><g class="layer nodes"><g aria-label="graph-node18" class="node" transform="translate(64.37326808037952,160.9745045766605)"><circle cx="0" cy="0" r="25" fill="#F79767" stroke="#f36924" stroke-width="2" class="b-outline"/><text x="0" y="5" fill="#FFF" class="caption" font-family="Helvetica Neue, Helvetica, Arial, sans-serif" font-size="10" pointer-events="none" text-anchor="middle">podcast</text></g><g aria-label="graph-node19" class="node" transform="translate(185.25107500848034,77.40633150430716)"><circle cx="0" cy="0" r="25" fill="#C990C0" stroke="#b261a5" stroke-width="2" class="b-outline"/><text x="0" y="5" fill="#FFF" class="caption" font-family="Helvetica Neue, Helvetica, Arial, sans-serif" font-size="10" pointer-events="none" text-anchor="middle">California</text></g><g aria-label="graph-node20" class="node" transform="translate(59.11570627539377,8.935881644552067)"><circle cx="0" cy="0" r="25" fill="#C990C0" stroke="#b261a5" stroke-width="2" class="b-outline"/><text x="0" y="0" fill="#FFF" class="caption" font-family="Helvetica Neue, Helvetica, Arial, sans-serif" font-size="10" pointer-events="none" text-anchor="middle">Kamala</text><text x="0" y="10" fill="#FFF" class="caption" font-family="Helvetica Neue, Helvetica, Arial, sans-serif" font-size="10" pointer-events="none" text-anchor="middle">Harris</text></g><g aria-label="graph-node21" class="node" transform="translate(-52.26958053720941,81.20034573955071)"><circle cx="0" cy="0" r="25" fill="#C990C0" stroke="#b261a5" stroke-width="2" class="b-outline"/><text x="0" y="0" fill="#FFF" class="caption" font-family="Helvetica Neue, Helvetica, Arial, sans-serif" font-size="10" pointer-events="none" text-anchor="middle">San</text><text x="0" y="10" fill="#FFF" class="caption" font-family="Helvetica Neue, Helvetica, Arial, sans-serif" font-size="10" pointer-events="none" text-anchor="middle">Franci…</text></g><g aria-label="graph-node23" class="node" transform="translate(52.14536630162807,-120.75406399781392)"><circle cx="0" cy="0" r="25" fill="#C990C0" stroke="#b261a5" stroke-width="2" class="b-outline"/><text x="0" y="0" fill="#FFF" class="caption" font-family="Helvetica Neue, Helvetica, Arial, sans-serif" font-size="10" pointer-events="none" text-anchor="middle">Attorney</text><text x="0" y="10" fill="#FFF" class="caption" font-family="Helvetica Neue, Helvetica, Arial, sans-serif" font-size="10" pointer-events="none" text-anchor="middle">of…</text></g><g aria-label="graph-node22" class="node" transform="translate(-76.8088607917906,-66.37642130383644)"><circle cx="0" cy="0" r="25" fill="#F79767" stroke="#f36924" stroke-width="2" class="b-outline"/><text x="0" y="5" fill="#FFF" class="caption" font-family="Helvetica Neue, Helvetica, Arial, sans-serif" font-size="10" pointer-events="none" text-anchor="middle">podcast</text></g></g></svg>